<svg width="945" height="1478" viewBox="0 0 945 1478" fill="none" xmlns="http://www.w3.org/2000/svg">
<path opacity="0.25" d="M825.185 2.0005C1026.17 90.8937 680.642 225.353 335.554 69.1033C-9.53453 -87.1466 -65.8379 231.638 119.161 327.693C304.16 423.749 504.086 451.002 683.746 401.252C863.405 351.502 1031.1 420.649 892.636 586.808C754.171 752.967 583.158 815.67 364.101 725.939C145.044 636.207 -72.3922 780.028 26.5984 907.44C125.589 1034.85 275.941 1127.71 482.376 1043.14C688.812 958.559 1017.28 997.675 898.299 1209.77C779.316 1421.86 582.747 1377.54 369.727 1344.89C156.708 1312.24 4.27439 1376.78 98.992 1475.66" stroke="white" stroke-width="4" stroke-linecap="round" stroke-linejoin="round" stroke-dasharray="40 40"/>
</svg>
